<?xml version="1.0" encoding="utf-8"?>
<!-- Generator: Adobe Illustrator 16.0.4, SVG Export Plug-In . SVG Version: 6.00 Build 0)  -->
<!DOCTYPE svg PUBLIC "-//W3C//DTD SVG 1.1//EN" "http://www.w3.org/Graphics/SVG/1.1/DTD/svg11.dtd">
<svg version="1.1" id="Capa_1" xmlns:svg="http://www.w3.org/2000/svg"
	 xmlns="http://www.w3.org/2000/svg" xmlns:xlink="http://www.w3.org/1999/xlink" x="0px" y="0px" width="100px" height="100px"
	 viewBox="0 0 100 100" enable-background="new 0 0 100 100" xml:space="preserve">
<path d="M25.131,77.829c-1.313,0-9.131,0.292-15.23,2.335C7.803,80.932,2.998,82.768,0,86.842v7.435C0,99.363,4.124,100,9.21,100
	h37.697c0.216-0.74,0.608-1.188,0.592-2.632c-0.082-7.448-7.967-11.499-19.013-19.375C27.329,77.844,26.576,77.829,25.131,77.829z
	 M0,52.632v25.822c6.579-5.263,18-4.328,23.553-4.704c-2.037-2.629-4.375-5.387-4.375-9.901c0-2.479,0.723-3.938,1.447-5.69
	c-1.601,0.143-3.182,0.296-4.638,0.296C9.395,58.454,3.982,55.941,0,52.632z M18.717,12.829c-3.78,0-7.869,1.887-10.198,4.803
	c-2.469,3.063-2.829,6.991-2.829,10.789c0,9.763,5.138,24.211,17.631,24.211c3.629,0,7.347-0.927,9.737-3.651
	c2.726-3.122,3.783-7.24,3.783-9.342C36.842,29.14,30.768,12.829,18.717,12.829z M9.21,0C4.124,0,0,2.632,0,9.21v7.895
	c0.363-0.35,0.796-0.751,1.184-1.086c8.28-6.854,17.35-7.983,24.967-8.125h30.69l-8.158,6.579h-8.881
	c3.565,3.092,8.881,8.608,8.881,18.454c0,10.786-5.675,15.92-11.776,20.724c-1.887,1.892-4.079,3.926-4.079,7.138
	c0,3.203,2.188,4.969,3.783,6.283l5.23,4.046c6.388,5.396,14.737,11.649,14.737,21.711c0,2.696-0.308,5.124-1.185,7.171h35.395
	c5.088,0,9.211-0.637,9.211-5.724v-60.23H81.579v18.586h-7.896V34.046h-18.42v-7.73h18.42V7.895h7.896v18.421H100V9.21
	C100,2.632,95.877,0,90.789,0H9.21z"/>
</svg>
