<?xml version="1.0" encoding="utf-8"?>
<!-- Generator: Adobe Illustrator 16.0.4, SVG Export Plug-In . SVG Version: 6.00 Build 0)  -->
<!DOCTYPE svg PUBLIC "-//W3C//DTD SVG 1.1//EN" "http://www.w3.org/Graphics/SVG/1.1/DTD/svg11.dtd">
<svg version="1.1" id="Layer_1" xmlns="http://www.w3.org/2000/svg" xmlns:xlink="http://www.w3.org/1999/xlink" x="0px" y="0px"
	 width="500px" height="500px" viewBox="0 0 500 500" enable-background="new 0 0 500 500" xml:space="preserve">
<g>
	<path fill="#FBB040" d="M110.335,248.233c-6.416-1.579-12.608-3.371-18.602-5.284c1.896,9.301,4.606,18.297,7.981,26.955
		c7.748-6.182,18.338-12.249,30.795-17.457C123.919,251.309,117.177,249.924,110.335,248.233z"/>
	<path fill="#FBB040" d="M388.889,130.525c-6.948,20.696-30.806,48.774-64.254,73.135c-5.698,4.151-11.415,7.98-17.087,11.526
		c31.404,0.271,55.341,8.661,56.404,21.037c1.261,14.674-30.055,29.342-69.939,32.773c-31.483,2.699-58.819-2.433-69.6-11.908
		c-4.16,13.385-28.694,29.991-61.036,40.062c-16.335,5.083-31.974,7.662-44.896,7.862c29.694,42.532,78.118,70.359,130.383,70.359
		c85.292,0,160.455-74.023,160.455-165.347C409.318,181.207,401.815,154.122,388.889,130.525z"/>
</g>
<path fill="#FBB040" d="M248.864,44.677c-70.899,0-134.749,51.17-154.298,120.882c11.029,1.267,22.662,3.311,34.62,6.258
	c38.251,9.444,69.707,25.29,84.941,41.062c7.078-20.675,30.884-48.606,64.168-72.844c33.964-24.736,68.529-38.859,90.311-38.689
	C338.669,66.637,295.283,44.677,248.864,44.677z M201.445,177.683c-6.566-22.422-31.422-59.774-48.571-75.527
	c-5.722-5.255,2.804-13.737,8.503-8.502c18.622,17.107,38.524,56.509,45.646,80.836
	C209.208,181.945,203.622,185.112,201.445,177.683z M236.474,86.942c-16.452,36.719-16.333,56.454-18.22,95.646
	c-0.373,7.719-7.386,7.258-7.014-0.5c2.009-41.681-2.65-62.157,14.853-101.218C229.257,73.807,239.619,79.928,236.474,86.942z"/>
<text transform="matrix(1 0 0 1 87.4629 442.4219)" display="none"><tspan x="0" y="0" display="inline" fill="#FBB040" font-family="'ArialRoundedMTBold'" font-size="57.91">Crowd</tspan><tspan x="186.482" y="0" display="inline" fill="#27AAE1" font-family="'ArialRoundedMTBold'" font-size="57.91">fluttr</tspan></text>
</svg>
