<?xml version="1.0" encoding="utf-8"?>
<!-- Generator: Adobe Illustrator 16.0.4, SVG Export Plug-In . SVG Version: 6.00 Build 0)  -->
<!DOCTYPE svg PUBLIC "-//W3C//DTD SVG 1.1//EN" "http://www.w3.org/Graphics/SVG/1.1/DTD/svg11.dtd">
<svg version="1.1" id="Layer_1" xmlns="http://www.w3.org/2000/svg" xmlns:xlink="http://www.w3.org/1999/xlink" x="0px" y="0px"
	 width="1000px" height="500px" viewBox="0 0 1000 500" enable-background="new 0 0 1000 500" xml:space="preserve">
<path fill="#FBB040" d="M167.435,274.192c0,4.204-1.036,8.753-3.108,13.647c-2.071,4.893-5.329,9.697-9.772,14.411
	c-4.444,4.713-10.119,8.542-17.023,11.482c-6.906,2.943-14.952,4.413-24.139,4.413c-6.966,0-13.301-0.659-19.005-1.981
	c-5.705-1.318-10.884-3.376-15.537-6.168c-4.654-2.792-8.933-6.471-12.835-11.035c-3.483-4.144-6.455-8.78-8.917-13.914
	c-2.462-5.135-4.309-10.614-5.539-16.44c-1.231-5.822-1.847-12.008-1.847-18.553c0-10.628,1.545-20.146,4.639-28.553
	c3.092-8.406,7.521-15.597,13.286-21.572c5.764-5.974,12.52-10.523,20.266-13.646c7.747-3.122,16.002-4.684,24.77-4.684
	c10.688,0,20.206,2.132,28.552,6.395c8.346,4.264,14.741,9.533,19.185,15.807c4.443,6.275,6.666,12.205,6.666,17.789
	c0,3.062-1.081,5.765-3.243,8.106s-4.774,3.513-7.836,3.513c-3.423,0-5.99-0.811-7.701-2.432c-1.711-1.622-3.618-4.414-5.72-8.376
	c-3.483-6.545-7.581-11.439-12.295-14.682c-4.714-3.243-10.523-4.864-17.429-4.864c-10.988,0-19.741,4.174-26.255,12.52
	c-6.516,8.347-9.773,20.207-9.773,35.578c0,10.267,1.441,18.81,4.323,25.626c2.882,6.814,6.965,11.903,12.25,15.265
	c5.284,3.365,11.469,5.044,18.555,5.044c7.686,0,14.186-1.905,19.5-5.718c5.314-3.813,9.322-9.414,12.024-16.8
	c1.14-3.48,2.552-6.319,4.233-8.51c1.681-2.192,4.383-3.289,8.106-3.289c3.183,0,5.914,1.113,8.197,3.332
	C166.293,268.129,167.435,270.892,167.435,274.192z"/>
<path fill="#FBB040" d="M196.658,282.659v20.536c0,4.986-1.171,8.723-3.513,11.216c-2.342,2.489-5.314,3.735-8.917,3.735
	c-3.543,0-6.455-1.261-8.737-3.782c-2.282-2.522-3.422-6.244-3.422-11.169v-68.454c0-11.048,3.993-16.573,11.979-16.573
	c4.083,0,7.026,1.292,8.827,3.873c1.801,2.582,2.792,6.395,2.972,11.439c2.942-5.044,5.959-8.857,9.052-11.439
	c3.092-2.582,7.22-3.873,12.385-3.873c5.164,0,10.178,1.292,15.042,3.873c4.864,2.582,7.296,6.005,7.296,10.268
	c0,3.003-1.036,5.48-3.107,7.431c-2.072,1.952-4.309,2.927-6.71,2.927c-0.901,0-3.078-0.555-6.53-1.666
	c-3.453-1.111-6.5-1.667-9.142-1.667c-3.603,0-6.545,0.946-8.827,2.837c-2.282,1.892-4.053,4.699-5.314,8.421
	c-1.261,3.724-2.132,8.153-2.612,13.287C196.897,269.015,196.658,275.273,196.658,282.659z"/>
<path fill="#FBB040" d="M348.782,233.481l16.033,54.943l14.591-51.07c1.561-5.344,2.717-8.992,3.468-10.944
	c0.75-1.951,2.162-3.812,4.233-5.584c2.072-1.771,4.909-2.657,8.512-2.657c3.662,0,6.53,0.886,8.602,2.657
	c2.071,1.772,3.527,3.693,4.368,5.765c0.84,2.072,2.011,5.66,3.513,10.764l14.592,51.07l16.213-54.943
	c1.081-3.963,1.951-6.83,2.612-8.602c0.66-1.771,1.771-3.333,3.333-4.684c1.561-1.351,3.813-2.026,6.755-2.026
	c2.942,0,5.495,1.021,7.656,3.062c2.162,2.042,3.243,4.444,3.243,7.206c0,2.522-0.932,6.335-2.792,11.439l-20.086,58.905
	c-1.742,4.986-3.093,8.59-4.053,10.809c-0.961,2.224-2.477,4.205-4.548,5.945c-2.072,1.741-4.909,2.611-8.512,2.611
	c-3.724,0-6.651-0.93-8.782-2.792c-2.132-1.859-3.708-4.144-4.729-6.846c-1.021-2.702-2.132-6.215-3.333-10.538l-14.051-47.917
	l-13.601,47.917c-1.802,6.665-3.753,11.695-5.854,15.089c-2.103,3.391-5.795,5.087-11.079,5.087c-2.702,0-4.999-0.525-6.89-1.574
	c-1.892-1.052-3.468-2.553-4.729-4.504c-1.261-1.952-2.373-4.264-3.333-6.935c-0.961-2.674-1.711-4.789-2.252-6.353l-19.906-58.905
	c-1.981-5.524-2.972-9.337-2.972-11.439c0-2.642,1.05-5.014,3.152-7.116c2.102-2.102,4.684-3.152,7.746-3.152
	c4.083,0,6.846,1.156,8.287,3.468C345.63,223.949,347.161,227.896,348.782,233.481z"/>
<path fill="#FBB040" d="M536.392,304.096v-2.432c-3.304,3.783-6.562,6.861-9.772,9.233c-3.214,2.371-6.696,4.173-10.449,5.404
	c-3.754,1.229-7.852,1.845-12.294,1.845c-5.886,0-11.335-1.246-16.348-3.735c-5.015-2.493-9.353-6.05-13.015-10.676
	c-3.664-4.622-6.44-10.056-8.332-16.303c-1.891-6.244-2.837-12.999-2.837-20.266c0-15.37,3.752-27.351,11.259-35.938
	c7.505-8.586,17.384-12.88,29.634-12.88c7.085,0,13.06,1.216,17.924,3.648c4.863,2.432,9.607,6.169,14.231,11.213v-36.298
	c0-5.044,1.005-8.857,3.018-11.439c2.01-2.582,4.878-3.873,8.602-3.873c3.722,0,6.589,1.186,8.602,3.558
	c2.011,2.373,3.018,5.87,3.018,10.493v108.445c0,4.684-1.081,8.196-3.243,10.538c-2.161,2.342-4.953,3.513-8.376,3.513
	c-3.363,0-6.142-1.214-8.332-3.646C537.486,312.068,536.392,308.6,536.392,304.096z M488.023,267.978
	c0,6.665,1.036,12.34,3.108,17.023c2.071,4.684,4.909,8.212,8.512,10.585c3.603,2.37,7.535,3.556,11.799,3.556
	c4.323,0,8.271-1.124,11.845-3.376c3.572-2.251,6.424-5.705,8.557-10.357c2.131-4.655,3.197-10.463,3.197-17.431
	c0-6.543-1.066-12.175-3.197-16.888c-2.133-4.713-5.016-8.316-8.646-10.809c-3.634-2.491-7.611-3.738-11.935-3.738
	c-4.504,0-8.528,1.276-12.07,3.828c-3.543,2.553-6.291,6.215-8.241,10.99C488.998,256.135,488.023,261.672,488.023,267.978z"/>
<path fill="#27AAE1" d="M574.024,220.331h5.855v-7.386c0-7.686,0.975-13.795,2.927-18.33c1.951-4.533,5.253-7.836,9.908-9.908
	c4.652-2.072,11.033-3.107,19.14-3.107c14.351,0,21.527,3.513,21.527,10.538c0,2.283-0.751,4.233-2.252,5.854
	c-1.502,1.622-3.273,2.432-5.314,2.432c-0.962,0-2.611-0.18-4.954-0.541c-2.342-0.36-4.323-0.541-5.944-0.541
	c-4.444,0-7.296,1.306-8.557,3.918c-1.261,2.612-1.892,6.35-1.892,11.214v5.854h6.035c9.367,0,14.051,2.823,14.051,8.467
	c0,4.023-1.246,6.575-3.738,7.656c-2.493,1.081-5.93,1.622-10.312,1.622h-6.035v65.121c0,4.863-1.156,8.572-3.468,11.125
	c-2.312,2.551-5.3,3.826-8.962,3.826c-3.484,0-6.381-1.275-8.691-3.826c-2.313-2.553-3.468-6.262-3.468-11.125v-65.121h-6.756
	c-3.664,0-6.485-0.825-8.467-2.477c-1.981-1.651-2.972-3.797-2.972-6.44C561.686,223.273,565.798,220.331,574.024,220.331z"/>
<path fill="#27AAE1" d="M636.882,303.195V196.552c0-4.923,1.096-8.647,3.288-11.169c2.19-2.522,5.148-3.783,8.871-3.783
	s6.726,1.247,9.008,3.738c2.28,2.492,3.423,6.23,3.423,11.214v106.644c0,4.986-1.157,8.723-3.468,11.216
	c-2.313,2.489-5.3,3.735-8.963,3.735c-3.603,0-6.529-1.289-8.781-3.873C638.008,311.694,636.882,308.001,636.882,303.195z"/>
<path fill="#27AAE1" d="M729.519,304.275v-3.152c-2.944,3.726-6.035,6.846-9.277,9.368c-3.243,2.521-6.786,4.398-10.629,5.631
	c-3.844,1.229-8.227,1.845-13.15,1.845c-5.944,0-11.274-1.23-15.987-3.693c-4.715-2.46-8.362-5.854-10.943-10.178
	c-3.062-5.224-4.594-12.729-4.594-22.518v-48.728c0-4.923,1.109-8.602,3.332-11.034c2.222-2.432,5.163-3.648,8.827-3.648
	c3.722,0,6.725,1.231,9.007,3.693c2.281,2.462,3.423,6.125,3.423,10.989v39.36c0,5.707,0.479,10.495,1.441,14.368
	c0.96,3.873,2.686,6.904,5.179,9.097c2.492,2.19,5.869,3.286,10.134,3.286c4.143,0,8.045-1.229,11.709-3.693
	c3.662-2.461,6.334-5.674,8.017-9.638c1.38-3.48,2.071-11.107,2.071-22.878v-29.902c0-4.864,1.141-8.526,3.423-10.989
	c2.28-2.462,5.253-3.693,8.917-3.693c3.662,0,6.604,1.216,8.827,3.648c2.221,2.432,3.332,6.11,3.332,11.034v71.245
	c0,4.684-1.066,8.196-3.197,10.538c-2.133,2.342-4.88,3.513-8.241,3.513c-3.363,0-6.142-1.214-8.332-3.646
	C730.613,312.068,729.519,308.66,729.519,304.275z"/>
<path fill="#27AAE1" d="M766.438,220.331h2.702v-14.772c0-3.963,0.104-7.07,0.315-9.322c0.209-2.251,0.794-4.188,1.756-5.81
	c0.96-1.681,2.342-3.047,4.144-4.098c1.802-1.05,3.812-1.576,6.035-1.576c3.121,0,5.944,1.171,8.466,3.513
	c1.681,1.562,2.747,3.468,3.198,5.72c0.45,2.251,0.675,5.449,0.675,9.592v16.753h45.93c3.481,0,6.139,0.826,7.971,2.477
	c1.831,1.652,2.747,3.769,2.747,6.35c0,3.303-1.306,5.615-3.918,6.936c-2.611,1.321-6.35,1.982-11.214,1.982h-41.516v45.214
	c0,3.845,0.136,6.803,0.405,8.874c0.271,2.071,0.991,3.752,2.162,5.044c1.171,1.29,3.077,1.935,5.72,1.935
	c1.441,0,3.392-0.254,5.854-0.764c2.461-0.512,4.383-0.768,5.765-0.768c1.981,0,3.767,0.797,5.359,2.389
	c1.591,1.591,2.387,3.557,2.387,5.898c0,3.963-2.162,6.996-6.485,9.097c-4.323,2.103-10.538,3.152-18.645,3.152
	c-7.687,0-13.511-1.289-17.474-3.873c-3.964-2.579-6.562-6.153-7.791-10.718c-1.232-4.562-1.847-10.657-1.847-18.285v-47.196h-3.242
	c-3.544,0-6.246-0.84-8.107-2.522c-1.862-1.681-2.792-3.813-2.792-6.396c0-2.581,0.975-4.698,2.928-6.35
	C759.878,221.156,762.715,220.331,766.438,220.331z"/>
<path fill="#27AAE1" d="M825.283,220.331h2.702v-14.772c0-3.963,0.104-7.07,0.315-9.322c0.209-2.251,0.795-4.188,1.757-5.81
	c0.96-1.681,2.342-3.047,4.144-4.098c1.801-1.05,3.812-1.576,6.034-1.576c3.122,0,5.944,1.171,8.467,3.513
	c1.681,1.562,2.747,3.468,3.197,5.72c0.45,2.251,0.676,5.449,0.676,9.592v16.753h9.007c3.482,0,6.14,0.826,7.972,2.477
	c1.83,1.652,2.747,3.769,2.747,6.35c0,3.303-1.306,5.615-3.918,6.936c-2.612,1.321-6.351,1.982-11.214,1.982h-4.594v45.214
	c0,3.845,0.135,6.803,0.405,8.874s0.991,3.752,2.162,5.044c1.171,1.29,3.076,1.935,5.719,1.935c1.441,0,3.393-0.254,5.855-0.764
	c2.46-0.512,4.383-0.768,5.764-0.768c1.982,0,3.768,0.797,5.359,2.389c1.591,1.591,2.387,3.557,2.387,5.898
	c0,3.963-2.161,6.996-6.484,9.097c-4.324,2.103-10.539,3.152-18.645,3.152c-7.688,0-13.511-1.289-17.475-3.873
	c-3.963-2.579-6.561-6.153-7.791-10.718c-1.232-4.562-1.847-10.657-1.847-18.285v-47.196h-3.242c-3.543,0-6.245-0.84-8.106-2.522
	c-1.862-1.681-2.792-3.813-2.792-6.396c0-2.581,0.975-4.698,2.927-6.35C818.723,221.156,821.561,220.331,825.283,220.331z"/>
<path fill="#27AAE1" d="M907.194,282.659v20.536c0,4.986-1.171,8.723-3.513,11.216c-2.342,2.489-5.314,3.735-8.917,3.735
	c-3.544,0-6.456-1.261-8.737-3.782c-2.282-2.522-3.423-6.244-3.423-11.169v-68.454c0-11.048,3.992-16.573,11.979-16.573
	c4.082,0,7.025,1.292,8.827,3.873c1.802,2.582,2.792,6.395,2.973,11.439c2.941-5.044,5.959-8.857,9.052-11.439
	c3.092-2.582,7.221-3.873,12.385-3.873c5.163,0,10.179,1.292,15.042,3.873c4.864,2.582,7.296,6.005,7.296,10.268
	c0,3.003-1.036,5.48-3.107,7.431c-2.071,1.952-4.309,2.927-6.71,2.927c-0.901,0-3.079-0.555-6.53-1.666
	c-3.453-1.111-6.502-1.667-9.143-1.667c-3.603,0-6.546,0.946-8.827,2.837c-2.282,1.892-4.053,4.699-5.313,8.421
	c-1.262,3.724-2.133,8.153-2.612,13.287C907.434,269.015,907.194,275.273,907.194,282.659z"/>
<g>
	<path fill="#FBB040" d="M238.516,280.778c-1.968-0.484-3.868-1.034-5.707-1.621c0.582,2.854,1.413,5.613,2.449,8.27
		c2.377-1.896,5.626-3.758,9.448-5.355C242.683,281.722,240.615,281.297,238.516,280.778z"/>
	<path fill="#FBB040" d="M323.975,244.666c-2.132,6.35-9.452,14.964-19.713,22.438c-1.748,1.273-3.502,2.448-5.242,3.536
		c9.634,0.083,16.979,2.657,17.305,6.454c0.386,4.502-9.221,9.002-21.458,10.055c-9.659,0.828-18.045-0.746-21.353-3.653
		c-1.276,4.106-8.803,9.201-18.726,12.291c-5.012,1.56-9.81,2.351-13.774,2.412c9.11,13.049,23.966,21.586,40.001,21.586
		c26.167,0,49.227-22.71,49.227-50.728C330.242,260.215,327.94,251.905,323.975,244.666z"/>
</g>
<path fill="#FBB040" d="M281.016,218.328c-21.751,0-41.34,15.699-47.338,37.086c3.384,0.389,6.953,1.016,10.621,1.92
	c11.735,2.897,21.386,7.759,26.06,12.598c2.171-6.343,9.475-14.912,19.687-22.348c10.419-7.589,21.024-11.922,27.707-11.87
	C308.567,225.065,295.257,218.328,281.016,218.328z M266.468,259.134c-2.015-6.879-9.64-18.338-14.901-23.171
	c-1.755-1.612,0.86-4.214,2.609-2.608c5.713,5.249,11.819,17.337,14.004,24.8C268.85,260.441,267.136,261.413,266.468,259.134z
	 M277.214,231.295c-5.047,11.265-5.011,17.32-5.59,29.344c-0.114,2.368-2.266,2.227-2.152-0.153
	c0.616-12.788-0.813-19.069,4.557-31.053C275,227.265,278.179,229.143,277.214,231.295z"/>
</svg>
